<svg width="30" height="30" viewBox="0 0 30 30" fill="none" xmlns="http://www.w3.org/2000/svg">
<path fill-rule="evenodd" clip-rule="evenodd" d="M30 15C30 23.2843 23.2843 30 15 30C6.71573 30 0 23.2843 0 15C0 6.71573 6.71573 0 15 0C23.2843 0 30 6.71573 30 15ZM15.2666 3.33339C16.0951 3.33339 16.7666 4.00497 16.7666 4.83339V12.9334L25.1665 12.9334C25.995 12.9334 26.6665 13.605 26.6665 14.4334C26.6665 15.2618 25.995 15.9334 25.1665 15.9334L16.7666 15.9334V24.3334C16.7666 25.1618 16.0951 25.8334 15.2666 25.8334C14.4382 25.8334 13.7666 25.1618 13.7666 24.3334V15.9334L5.66654 15.9334C4.83812 15.9334 4.16654 15.2618 4.16654 14.4334C4.16654 13.605 4.83812 12.9334 5.66654 12.9334L13.7666 12.9334V4.83339C13.7666 4.00497 14.4382 3.33339 15.2666 3.33339Z" fill="#1089FF"/>
</svg>
