<svg width="36" height="22" viewBox="0 0 36 22" fill="none" xmlns="http://www.w3.org/2000/svg">
<path fill-rule="evenodd" clip-rule="evenodd" d="M0 2C0 0.895431 0.895431 0 2 0H34C35.1046 0 36 0.895431 36 2C36 3.10457 35.1046 4 34 4H2C0.895431 4 0 3.10457 0 2Z" fill="white"/>
<path fill-rule="evenodd" clip-rule="evenodd" d="M0 11C0 9.89543 0.895431 9 2 9H34C35.1046 9 36 9.89543 36 11C36 12.1046 35.1046 13 34 13H2C0.895431 13 0 12.1046 0 11Z" fill="white"/>
<path fill-rule="evenodd" clip-rule="evenodd" d="M0 20C0 18.8954 0.895431 18 2 18H34C35.1046 18 36 18.8954 36 20C36 21.1046 35.1046 22 34 22H2C0.895431 22 0 21.1046 0 20Z" fill="white"/>
</svg>
