<svg width="30" height="30" viewBox="0 0 30 30" fill="none" xmlns="http://www.w3.org/2000/svg">
<path fill-rule="evenodd" clip-rule="evenodd" d="M2.23223 1.76777C3.20854 0.791456 4.79146 0.791456 5.76777 1.76777L28.2322 24.2322C29.2085 25.2085 29.2085 26.7915 28.2322 27.7678C27.2559 28.7441 25.673 28.7441 24.6967 27.7678L2.23223 5.3033C1.25592 4.32699 1.25592 2.74408 2.23223 1.76777Z" fill="white"/>
<path fill-rule="evenodd" clip-rule="evenodd" d="M28.2322 2.23223C29.2085 3.20854 29.2085 4.79146 28.2322 5.76777L5.76777 28.2322C4.79146 29.2085 3.20854 29.2085 2.23223 28.2322C1.25592 27.2559 1.25592 25.673 2.23223 24.6967L24.6967 2.23223C25.673 1.25592 27.2559 1.25592 28.2322 2.23223Z" fill="white"/>
</svg>
