<svg width="127" height="127" viewBox="0 0 127 127" fill="none" xmlns="http://www.w3.org/2000/svg">
<rect x="41" y="14" width="46" height="100" fill="white"/>
<rect x="14" y="87" width="46" height="100" transform="rotate(-90 14 87)" fill="white"/>
<path fill-rule="evenodd" clip-rule="evenodd" d="M127 63.5C127 98.5701 98.5701 127 63.5 127C28.4299 127 0 98.5701 0 63.5C0 28.4299 28.4299 0 63.5 0C98.5701 0 127 28.4299 127 63.5ZM64.6286 14.1114C68.1356 14.1114 70.9786 16.9544 70.9786 20.4614V54.7513L106.538 54.7513C110.045 54.7513 112.888 57.5943 112.888 61.1013C112.888 64.6083 110.045 67.4513 106.538 67.4513H70.9786V103.011C70.9786 106.518 68.1356 109.361 64.6286 109.361C61.1216 109.361 58.2786 106.518 58.2786 103.011V67.4513H23.9882C20.4812 67.4513 17.6382 64.6083 17.6382 61.1013C17.6382 57.5943 20.4812 54.7513 23.9882 54.7513L58.2786 54.7513V20.4614C58.2786 16.9544 61.1216 14.1114 64.6286 14.1114Z" fill="#23374D"/>
</svg>
