<svg width="30" height="30" viewBox="0 0 30 30" fill="none" xmlns="http://www.w3.org/2000/svg">
<path fill-rule="evenodd" clip-rule="evenodd" d="M25.6066 4.3934C31.4645 10.2513 31.4645 19.7487 25.6066 25.6066C19.7487 31.4645 10.2513 31.4645 4.3934 25.6066C-1.46447 19.7487 -1.46447 10.2513 4.3934 4.3934C10.2513 -1.46447 19.7487 -1.46447 25.6066 4.3934ZM6.93901 6.56192C7.5248 5.97613 8.47454 5.97613 9.06033 6.56192L14.7879 12.2895L20.7275 6.34985C21.3133 5.76407 22.2631 5.76407 22.8488 6.34985C23.4346 6.93564 23.4346 7.88539 22.8488 8.47117L16.9092 14.4108L22.8489 20.3505C23.4347 20.9363 23.4347 21.886 22.8489 22.4718C22.2631 23.0576 21.3134 23.0576 20.7276 22.4718L14.7879 16.5321L9.06026 22.2598C8.47447 22.8455 7.52472 22.8455 6.93893 22.2598C6.35315 21.674 6.35315 20.7242 6.93893 20.1384L12.6666 14.4108L6.93901 8.68324C6.35322 8.09745 6.35322 7.14771 6.93901 6.56192Z" fill="#1089FF"/>
</svg>
