<svg width="30" height="30" viewBox="0 0 30 30" fill="none" xmlns="http://www.w3.org/2000/svg">
<path fill-rule="evenodd" clip-rule="evenodd" d="M15 30C23.2842 30 30 23.2843 30 15C30 6.71573 23.2842 0 15 0C6.71582 0 0 6.71573 0 15C0 23.2843 6.71582 30 15 30Z" fill="#1089FF"/>
<path d="M23.6105 10.117C23.3632 10.0083 23.0744 10.0622 22.8837 10.2524L20.9475 12.1799L17.4155 11.5579L16.7907 8.03978L18.727 6.11228C18.9175 5.92207 18.9717 5.63468 18.8628 5.38839C18.7539 5.1424 18.5035 4.98794 18.2342 5.00074C16.9147 5.06212 15.6141 5.59267 14.606 6.59695C13.0581 8.13811 12.6302 10.3655 13.3085 12.293L5.71356 19.8592C4.76215 20.8062 4.76215 22.3423 5.71356 23.2896C6.16979 23.7444 6.789 24 7.43519 24C8.08076 24 8.70052 23.7443 9.15675 23.2899L16.7894 15.6877C18.6986 16.3079 20.8796 15.8676 22.396 14.3562C23.4041 13.3525 23.937 12.0574 23.9994 10.7434C24.0113 10.4749 23.8578 10.2261 23.6105 10.117ZM8.61813 21.8428C8.21733 22.2421 7.56667 22.2421 7.16587 21.8428C6.76436 21.443 6.76436 20.7956 7.16587 20.3957C7.56667 19.9965 8.21733 19.9965 8.61813 20.3957C9.01902 20.7956 9.01902 21.443 8.61813 21.8428Z" fill="white"/>
</svg>
