<svg width="19" height="19" viewBox="0 0 19 19" fill="none" xmlns="http://www.w3.org/2000/svg">
<path d="M18.6105 5.11702C18.3632 5.00829 18.0744 5.06221 17.8837 5.25238L15.9475 7.17992L12.4155 6.55788L11.7907 3.03978L13.727 1.11228C13.9175 0.922067 13.9717 0.634684 13.8628 0.388388C13.7539 0.142401 13.5035 -0.0120558 13.2342 0.000738319C11.9147 0.062119 10.6141 0.592668 9.60603 1.59695C8.0581 3.13811 7.63021 5.36552 8.30849 7.29298L0.71356 14.8592C-0.237853 15.8062 -0.237853 17.3423 0.71356 18.2896C1.16979 18.7444 1.789 19 2.43519 19C3.08076 19 3.70052 18.7443 4.15675 18.2899L11.7894 10.6877C13.6986 11.3079 15.8796 10.8676 17.396 9.35623C18.4041 8.3525 18.937 7.05736 18.9994 5.74343C19.0113 5.47491 18.8578 5.22606 18.6105 5.11702ZM3.61813 16.8428C3.21733 17.2421 2.56667 17.2421 2.16587 16.8428C1.76436 16.443 1.76436 15.7956 2.16587 15.3957C2.56667 14.9965 3.21733 14.9965 3.61813 15.3957C4.01902 15.7956 4.01902 16.443 3.61813 16.8428Z" fill="white"/>
</svg>
