<svg width="39" height="37" viewBox="0 0 39 37" fill="none" xmlns="http://www.w3.org/2000/svg">
<path d="M23.2324 18.5C23.2324 20.4557 21.5614 22.041 19.5 22.041C17.4386 22.041 15.7676 20.4557 15.7676 18.5C15.7676 16.5443 17.4386 14.959 19.5 14.959C21.5614 14.959 23.2324 16.5443 23.2324 18.5Z" fill="white"/>
<path d="M28.2288 12.2348C28.0494 11.7735 27.7632 11.356 27.3913 11.0133C27.03 10.6605 26.5903 10.3889 26.1038 10.2187C25.7092 10.0733 25.1165 9.90026 24.0248 9.85312C22.8439 9.80202 22.4898 9.79102 19.5 9.79102C16.51 9.79102 16.1559 9.80174 14.9752 9.85284C13.8835 9.90026 13.2905 10.0733 12.8963 10.2187C12.4098 10.3889 11.9697 10.6605 11.6088 11.0133C11.2369 11.356 10.9506 11.7732 10.7709 12.2348C10.6177 12.6091 10.4353 13.1717 10.3856 14.2074C10.3317 15.3275 10.3201 15.6634 10.3201 18.5002C10.3201 21.3366 10.3317 21.6725 10.3856 22.7929C10.4353 23.8286 10.6177 24.3909 10.7709 24.7652C10.9506 25.2268 11.2366 25.644 11.6085 25.9867C11.9697 26.3396 12.4095 26.6111 12.896 26.7813C13.2905 26.927 13.8835 27.1 14.9752 27.1472C16.1559 27.1983 16.5097 27.209 19.4997 27.209C22.4901 27.209 22.8442 27.1983 24.0245 27.1472C25.1162 27.1 25.7092 26.927 26.1038 26.7813C27.0803 26.424 27.8522 25.6917 28.2288 24.7652C28.3821 24.3909 28.5645 23.8286 28.6145 22.7929C28.6683 21.6725 28.6796 21.3366 28.6796 18.5002C28.6796 15.6634 28.6683 15.3275 28.6145 14.2074C28.5648 13.1717 28.3824 12.6091 28.2288 12.2348ZM19.5 23.9548C16.3243 23.9548 13.7499 21.5127 13.7499 18.4999C13.7499 15.487 16.3243 13.0449 19.5 13.0449C22.6754 13.0449 25.2498 15.487 25.2498 18.4999C25.2498 21.5127 22.6754 23.9548 19.5 23.9548ZM25.4771 14.1041C24.7351 14.1041 24.1334 13.5333 24.1334 12.8293C24.1334 12.1253 24.7351 11.5545 25.4771 11.5545C26.2192 11.5545 26.8209 12.1253 26.8209 12.8293C26.8206 13.5333 26.2192 14.1041 25.4771 14.1041Z" fill="white"/>
<path d="M19.5 0C8.73209 0 0 8.28429 0 18.5C0 28.7157 8.73209 37 19.5 37C30.2679 37 39 28.7157 39 18.5C39 8.28429 30.2679 0 19.5 0ZM30.6297 22.8797C30.5756 24.0105 30.386 24.7826 30.1093 25.4584C29.5276 26.8854 28.3386 28.0134 26.8345 28.5652C26.1225 28.8278 25.3084 29.0073 24.1167 29.059C22.9227 29.1106 22.5412 29.123 19.5003 29.123C16.4591 29.123 16.0779 29.1106 14.8836 29.059C13.6919 29.0073 12.8778 28.8278 12.1658 28.5652C11.4183 28.2985 10.7417 27.8804 10.1823 27.3398C9.61283 26.8094 9.17216 26.1672 8.89098 25.4584C8.61427 24.7829 8.42473 24.0105 8.37057 22.88C8.31553 21.7469 8.30273 21.385 8.30273 18.5C8.30273 15.615 8.31553 15.2531 8.37028 14.1203C8.42443 12.9895 8.61367 12.2174 8.89039 11.5416C9.17157 10.8328 9.61253 10.1906 10.1823 9.66016C10.7414 9.11958 11.4183 8.70152 12.1655 8.43475C12.8778 8.17223 13.6916 7.99269 14.8836 7.94103C16.0776 7.88937 16.4591 7.87695 19.5 7.87695C22.5409 7.87695 22.9224 7.88937 24.1164 7.94131C25.3084 7.99269 26.1222 8.17223 26.8345 8.43447C27.5817 8.70123 28.2586 9.11958 28.818 9.66016C29.3875 10.1909 29.8284 10.8328 30.1093 11.5416C30.3863 12.2174 30.5756 12.9895 30.63 14.1203C30.6845 15.2531 30.6973 15.615 30.6973 18.5C30.6973 21.385 30.6845 21.7469 30.6297 22.8797Z" fill="white"/>
</svg>
