<svg width="32" height="32" viewBox="0 0 32 32" fill="none" xmlns="http://www.w3.org/2000/svg">
<path d="M25.3333 2.66667H17.0999C16.5495 1.11523 15.0713 0 13.3333 0C11.5954 0 10.1172 1.11523 9.56673 2.66667H0V32H32V2.66667H25.3333ZM13.3333 2.66667C14.0687 2.66667 14.6667 3.26465 14.6667 4C14.6667 4.73535 14.0687 5.33333 13.3333 5.33333C12.598 5.33333 12 4.73535 12 4C12 3.26465 12.598 2.66667 13.3333 2.66667ZM2.66667 5.33333H9.56673C10.1172 6.88477 11.5954 8 13.3333 8C15.0713 8 16.5495 6.88477 17.0999 5.33333H24V21.3333H16V29.3333H2.66667V5.33333ZM23.4473 24L18.6667 28.7812V24H23.4473ZM29.3333 5.33333V29.3333H21.8854L26.6667 24.5514V5.33333H29.3333Z" fill="white"/>
<path d="M5.3335 10.6667H20.0002V13.3334H5.3335V10.6667Z" fill="white"/>
<path d="M5.3335 16H18.6668V18.6667H5.3335V16Z" fill="white"/>
<path d="M5.3335 21.3333H13.3335V23.9999H5.3335V21.3333Z" fill="white"/>
</svg>
