<svg width="19" height="19" viewBox="0 0 19 19" fill="none" xmlns="http://www.w3.org/2000/svg">
<path fill-rule="evenodd" clip-rule="evenodd" d="M9.5 19C14.7467 19 19 14.7467 19 9.5C19 4.25329 14.7467 0 9.5 0C4.25329 0 0 4.25329 0 9.5C0 14.7467 4.25329 19 9.5 19ZM10.6189 3.06113C10.6189 2.53646 10.1935 2.11113 9.66886 2.11113C9.14419 2.11113 8.71886 2.53646 8.71886 3.06113V8.19112H3.5888C3.06413 8.19112 2.6388 8.61645 2.6388 9.14112C2.6388 9.66579 3.06413 10.0911 3.5888 10.0911L8.71886 10.0911V15.4111C8.71886 15.9358 9.14419 16.3611 9.66886 16.3611C10.1935 16.3611 10.6189 15.9358 10.6189 15.4111V10.0911L15.9388 10.0911C16.4635 10.0911 16.8888 9.6658 16.8888 9.14112C16.8888 8.61645 16.4635 8.19112 15.9388 8.19112H10.6189V3.06113Z" fill="#1089FF"/>
</svg>
