<svg width="28" height="24" viewBox="0 0 28 24" fill="none" xmlns="http://www.w3.org/2000/svg">
<path d="M28 12.0004C28 11.338 27.4773 10.8004 26.8333 10.8004L3.55892 10.8004L12.4711 2.06929C12.9372 1.6127 12.9564 0.853702 12.5113 0.372506C12.0668 -0.10749 11.3289 -0.12609 10.8622 0.331106L0.683668 10.303C0.242668 10.7566 4.57156e-07 11.359 4.2912e-07 12.0004C4.0111e-07 12.6412 0.242667 13.2442 0.704084 13.7176L10.8622 23.6691C11.3289 24.1263 12.0668 24.1071 12.5113 23.6277C12.9564 23.1483 12.9378 22.3887 12.4711 21.9315L3.52158 13.2004L26.8333 13.2004C27.4773 13.2004 28 12.6628 28 12.0004Z" fill="#1089FF"/>
</svg>
