<svg width="31" height="31" viewBox="0 0 31 31" fill="none" xmlns="http://www.w3.org/2000/svg">
<path d="M29.6728 27.9296L20.0721 18.3289C21.6228 16.3974 22.5512 13.9451 22.5512 11.2756C22.5512 5.0486 17.5026 0 11.2756 0C5.0486 0 0 5.0486 0 11.2756C0 17.5026 5.0486 22.5512 11.2756 22.5512C13.9305 22.5512 16.3707 21.633 18.2972 20.0976L27.901 29.7014C28.3902 30.1906 29.1835 30.1906 29.6728 29.7014C30.1622 29.2121 30.1622 28.4188 29.6728 27.9296ZM2.50577 11.2756C2.50577 6.43245 6.43256 2.50571 11.2757 2.50571C16.1188 2.50571 20.0456 6.43245 20.0456 11.2756C20.0456 13.7042 19.0581 15.9023 17.4628 17.4905C17.4627 17.4906 17.4625 17.4907 17.4624 17.4909C17.4623 17.4909 17.4622 17.4911 17.4622 17.4912C15.8762 19.0697 13.6899 20.0456 11.2757 20.0456C6.43256 20.0455 2.50577 16.1188 2.50577 11.2756Z" fill="white"/>
</svg>
