<svg width="32" height="32" viewBox="0 0 32 32" fill="none" xmlns="http://www.w3.org/2000/svg">
<path d="M7.41602 28.8C7.41602 27.5777 8.39083 26.6 9.59999 26.6C10.8157 26.6 11.8 27.5842 11.8 28.8C11.8 30.0157 10.8157 31 9.59999 31C8.39083 31 7.41602 30.0223 7.41602 28.8Z" stroke="white" stroke-width="2"/>
<path d="M11.36 16.6H10.7683L10.4835 17.1187L9.05424 19.7217C8.93014 19.9431 8.88004 20.1781 8.88004 20.4C8.88004 21.1761 9.50358 21.8 10.28 21.8H27.8V23H9.59999C8.38427 23 7.39997 22.0157 7.39997 20.8C7.39997 20.4181 7.49669 20.0608 7.67116 19.7326L9.82783 15.8186L10.0749 15.3703L9.85563 14.9077L4.10366 2.77173L3.8327 2.20002H3.20002H1V1H4.59189L5.84072 3.62908L6.11192 4.20002H6.74399H30.4C30.731 4.20002 31 4.46754 31 4.79999C31 4.90851 30.9721 5.00113 30.9317 5.07182L30.9279 5.07863L30.9241 5.08551L25.2078 15.4628C25.2072 15.4638 25.2067 15.4648 25.2061 15.4658C24.822 16.148 24.0999 16.6 23.28 16.6H11.36Z" stroke="white" stroke-width="2"/>
<path d="M23.416 28.8C23.416 27.5777 24.3908 26.6 25.6 26.6C26.8157 26.6 27.8 27.5843 27.8 28.8C27.8 30.0157 26.8157 31 25.6 31C24.3908 31 23.416 30.0223 23.416 28.8Z" stroke="white" stroke-width="2"/>
</svg>
