<svg width="147" height="37" viewBox="0 0 147 37" fill="none" xmlns="http://www.w3.org/2000/svg">
<path d="M107.593 36.1403H105.974V26.4795L102.214 32.276H101.361L97.6014 26.4795V36.1403H96V23.8337H97.7581L101.849 30.2394L105.939 23.8337H107.593V36.1403Z" fill="white"/>
<path d="M115.438 34.713C115.774 34.5389 116.053 34.3068 116.273 34.0167C116.494 33.715 116.656 33.361 116.76 32.9549C116.865 32.5487 116.917 32.1077 116.917 31.632C116.917 31.1678 116.865 30.7326 116.76 30.3264C116.656 29.9203 116.494 29.5721 116.273 29.282C116.053 28.9803 115.774 28.7424 115.438 28.5683C115.101 28.3943 114.701 28.3072 114.236 28.3072C113.761 28.3072 113.354 28.3943 113.018 28.5683C112.681 28.7424 112.397 28.9803 112.165 29.282C111.945 29.5721 111.782 29.9203 111.678 30.3264C111.573 30.7326 111.521 31.1678 111.521 31.632C111.521 32.1077 111.573 32.5487 111.678 32.9549C111.782 33.361 111.945 33.715 112.165 34.0167C112.397 34.3068 112.681 34.5389 113.018 34.713C113.354 34.887 113.761 34.9741 114.236 34.9741C114.701 34.9741 115.101 34.887 115.438 34.713ZM117.387 35.0263C117.039 35.4325 116.598 35.7516 116.064 35.9837C115.542 36.2042 114.933 36.3144 114.236 36.3144C113.54 36.3144 112.925 36.2042 112.391 35.9837C111.869 35.7516 111.422 35.4325 111.051 35.0263C110.691 34.6085 110.419 34.1153 110.233 33.5467C110.047 32.9665 109.954 32.3282 109.954 31.632C109.954 30.9473 110.047 30.3206 110.233 29.752C110.419 29.1718 110.691 28.6786 111.051 28.2724C111.422 27.8547 111.869 27.5355 112.391 27.3151C112.925 27.083 113.54 26.9669 114.236 26.9669C114.921 26.9669 115.525 27.083 116.047 27.3151C116.581 27.5355 117.027 27.8547 117.387 28.2724C117.747 28.6786 118.02 29.1718 118.205 29.752C118.391 30.3206 118.484 30.9473 118.484 31.632C118.484 32.3282 118.391 32.9665 118.205 33.5467C118.02 34.1153 117.747 34.6085 117.387 35.0263Z" fill="white"/>
<path d="M122.001 36.1403H120.678V23.1722L122.228 23.033V28.0984C122.669 27.7502 123.127 27.4775 123.603 27.2802C124.078 27.0714 124.577 26.9669 125.1 26.9669C125.68 26.9669 126.191 27.0946 126.631 27.3499C127.084 27.6052 127.461 27.9475 127.763 28.3769C128.065 28.7946 128.291 29.2762 128.442 29.8216C128.604 30.3671 128.686 30.9299 128.686 31.5101C128.686 32.16 128.593 32.775 128.407 33.3552C128.233 33.9355 127.972 34.4461 127.624 34.887C127.276 35.328 126.846 35.6762 126.336 35.9315C125.837 36.1868 125.262 36.3144 124.612 36.3144C124.171 36.3144 123.736 36.2506 123.307 36.1229C122.877 35.9837 122.5 35.7806 122.175 35.5137L122.001 36.1403ZM122.228 34.2778C122.541 34.4867 122.883 34.655 123.255 34.7826C123.638 34.9103 124.026 34.9741 124.421 34.9741C124.885 34.9741 125.285 34.8812 125.622 34.6956C125.97 34.5099 126.254 34.2546 126.475 33.9297C126.695 33.6047 126.858 33.2334 126.962 32.8156C127.067 32.3979 127.119 31.9511 127.119 31.4753C127.119 31.0459 127.072 30.6398 126.98 30.2568C126.887 29.8623 126.742 29.5257 126.544 29.2472C126.359 28.9571 126.115 28.7308 125.813 28.5683C125.512 28.3943 125.158 28.3072 124.752 28.3072C124.311 28.3072 123.858 28.4001 123.394 28.5858C122.941 28.7714 122.552 28.9803 122.228 29.2124V34.2778Z" fill="white"/>
<path d="M132.427 36.1403H130.878V27.1758L132.427 27.0365V36.1403ZM132.653 24.0252C132.653 24.3037 132.56 24.5358 132.375 24.7214C132.189 24.9071 131.945 24.9999 131.644 24.9999C131.342 24.9999 131.098 24.9071 130.912 24.7214C130.727 24.5358 130.634 24.3037 130.634 24.0252C130.634 23.735 130.727 23.5029 130.912 23.3289C131.098 23.1548 131.342 23.0678 131.644 23.0678C131.945 23.0678 132.189 23.1548 132.375 23.3289C132.56 23.5029 132.653 23.735 132.653 24.0252Z" fill="white"/>
<path d="M136.796 36.1403H135.246V23.1722L136.796 23.033V36.1403Z" fill="white"/>
<path d="M146.369 35.4615C145.94 35.7516 145.446 35.9663 144.889 36.1055C144.332 36.2448 143.793 36.3144 143.271 36.3144C142.563 36.3144 141.942 36.1984 141.408 35.9663C140.874 35.7342 140.427 35.4093 140.068 34.9915C139.708 34.5621 139.435 34.0573 139.25 33.4771C139.076 32.8853 138.988 32.2412 138.988 31.5449C138.988 30.9299 139.058 30.3439 139.197 29.7868C139.348 29.2298 139.58 28.7424 139.894 28.3247C140.207 27.9069 140.602 27.5762 141.077 27.3325C141.565 27.0888 142.145 26.9669 142.818 26.9669C143.421 26.9669 143.955 27.0714 144.419 27.2802C144.884 27.4775 145.272 27.756 145.586 28.1158C145.899 28.4755 146.137 28.9107 146.299 29.4213C146.462 29.9203 146.543 30.4657 146.543 31.0575C146.543 31.4869 146.508 31.8641 146.439 32.189H140.555C140.648 33.0477 140.921 33.7266 141.373 34.2256C141.826 34.7246 142.481 34.9741 143.34 34.9741C143.781 34.9741 144.211 34.9103 144.628 34.7826C145.058 34.6433 145.464 34.4635 145.847 34.243L146.369 35.4615ZM145.011 30.9531C145 30.5701 144.947 30.2162 144.855 29.8913C144.762 29.5547 144.628 29.2704 144.454 29.0383C144.28 28.7946 144.06 28.609 143.793 28.4813C143.526 28.3421 143.207 28.2724 142.835 28.2724C142.452 28.2724 142.122 28.3421 141.843 28.4813C141.576 28.6206 141.35 28.812 141.164 29.0557C140.99 29.2994 140.851 29.5837 140.747 29.9087C140.642 30.2336 140.573 30.5817 140.538 30.9531H145.011Z" fill="white"/>
<path fill-rule="evenodd" clip-rule="evenodd" d="M80.6094 9.7514C80.6094 9.7514 79.1792 8.88857 78.2948 8.55471C78.2948 8.55471 75.5574 7.31684 75.0143 6.72789C75.0143 6.72789 73.9474 5.7469 74.5721 4.60749C74.5721 4.60749 74.8335 3.86191 75.961 3.86191C75.961 3.86191 77.4288 3.94067 77.4288 5.11768V6.77802H82.6891L82.6799 4.33271C82.6799 4.33271 83.0844 0.328217 76.4839 0.15189C76.4839 0.15189 71.2925 -0.181077 69.8036 2.54707C69.8036 2.54707 69.2192 3.15571 69.2192 5.27521V6.80666C69.2192 6.80666 69.1596 8.57351 70.0843 9.71202C70.0843 9.71202 70.6072 10.4585 71.8952 11.282C71.8952 11.282 74.5106 12.6559 76.0803 13.4426C76.0803 13.4426 77.6646 14.3252 77.4563 15.7295C77.4563 15.7295 77.327 17.1714 75.7968 17.1124C75.7968 17.1124 74.3978 17.0515 74.3978 15.6373V13.9779H68.7926V16.3883C68.7926 16.3883 68.6357 20.9978 75.8381 20.9978C75.8381 20.9978 82.7202 21.1339 83.0413 16.2674V14.3046C83.0413 14.3046 83.2844 11.3222 80.6094 9.7514ZM53.6788 0.725622L51.9174 11.495H51.5055L49.8231 0.82229H41.0364L40.5961 20.3247H45.7985L45.8609 5.63055H46.2701L49.0277 20.3221H54.5008L57.2245 5.63592H57.5868L57.7125 20.3247H62.9425L62.3792 0.725622H53.6788ZM22.71 0.807076L19.2487 20.3024H24.8493L26.8996 5.1866H27.3602L29.4096 20.3024H35.0093L31.5489 0.807076H22.71ZM140.228 9.48288V12.3587H141.665V15.4458C141.665 16.9548 140.343 16.9826 140.343 16.9826C138.735 16.9826 138.796 15.5487 138.796 15.5487V4.87064C138.796 3.77061 140.222 3.71154 140.222 3.71154C141.591 3.71154 141.6 5.0237 141.6 5.0237V6.64733H146.873C147.046 3.47793 146.398 2.71087 146.398 2.71087C145.09 -0.155114 140.142 0.00152081 140.142 0.00152081C132.538 0.00152081 133.382 5.6941 133.382 5.6941V16.0186C133.545 21.3576 141.038 20.8152 141.165 20.8108C144.497 20.4509 145.504 19.4172 145.504 19.4172C146.43 18.7459 146.669 17.8159 146.669 17.8159C146.934 17.2744 147 15.5487 147 15.5487V9.48288H140.228ZM122.749 12.6559H122.52L117.169 0.73099H110.766V20.3265H115.977L115.665 8.40345H115.898L121.442 20.3265H127.65V0.729201H122.373L122.749 12.6559ZM98.0469 15.444C98.0469 15.444 98.1221 17.0524 96.5938 17.0524C96.5938 17.0524 94.9865 17.1365 94.9865 15.4843L94.97 0.742626H89.2547V15.367C89.2547 15.367 88.6685 20.9021 96.6745 20.9021C96.6745 20.9021 103.632 20.9826 103.632 15.6212V0.74352H98.0469V15.444ZM11.8143 9.7514C11.8143 9.7514 10.3859 8.88857 9.50064 8.5556C9.50064 8.5556 6.76502 7.31863 6.22193 6.72879C6.22193 6.72879 5.15502 5.74601 5.78067 4.60928C5.78067 4.60928 6.04121 3.8637 7.16775 3.8637C7.16775 3.8637 8.63647 3.94157 8.63647 5.11857V6.77891H13.8986L13.8885 4.33271C13.8885 4.33271 14.2903 0.328216 7.69249 0.152785C7.69249 0.152785 7.19527 0.121455 6.46595 0.157258C6.46595 0.157258 2.46894 0.366702 1.03966 2.50589C1.03141 2.52201 1.01948 2.53365 1.01122 2.54797C1.01122 2.54797 0.427773 3.15571 0.427773 5.2761V6.80755C0.427773 6.80755 0.367225 8.5744 1.29286 9.71292C1.29286 9.71292 1.81577 10.4594 3.10376 11.2828C3.10376 11.2828 5.71829 12.6568 7.28792 13.4435C7.28792 13.4435 8.87407 14.3243 8.66399 15.7304C8.66399 15.7304 8.53464 17.1723 7.00537 17.1133C7.00537 17.1133 5.60637 17.0524 5.60637 15.6382V13.9779H0.000273342V16.3901C0.000273342 16.3901 -0.156598 20.9996 7.04574 20.9996C7.04574 20.9996 13.9261 21.1357 14.2499 16.2692V14.3082C14.2499 14.3082 14.4903 11.3222 11.8143 9.7514Z" fill="white"/>
<rect y="28" width="91" height="6" fill="#1089FF"/>
</svg>
