<svg width="22" height="21" viewBox="0 0 22 21" fill="none" xmlns="http://www.w3.org/2000/svg">
<path d="M11.195 0.535326L11.1951 0.535692L13.9573 7.07335L14.0747 7.3511L14.3751 7.37691L21.4465 7.9844C21.4465 7.9844 21.4466 7.98441 21.4466 7.98441C21.4657 7.98609 21.4736 7.99157 21.4779 7.99517C21.4843 8.00051 21.4918 8.01025 21.4964 8.02437C21.501 8.03849 21.5006 8.05057 21.4987 8.05826C21.4974 8.0633 21.4945 8.0721 21.48 8.08462L21.4798 8.08482L16.1159 12.732L15.888 12.9294L15.9563 13.2231L17.5636 20.1362C17.568 20.1554 17.5652 20.1647 17.5631 20.1698C17.5601 20.1774 17.5533 20.1874 17.5415 20.196C17.5297 20.2045 17.5182 20.2078 17.5104 20.2083C17.5052 20.2087 17.4958 20.2086 17.4793 20.1986L17.4784 20.198L11.4011 16.5329L11.1429 16.3772L10.8847 16.5329L4.80789 20.1978C4.80786 20.1978 4.80783 20.1978 4.80779 20.1978C4.79088 20.208 4.78111 20.2081 4.77563 20.2077C4.76748 20.2072 4.75591 20.2038 4.74412 20.1953C4.73232 20.1867 4.72561 20.1768 4.72263 20.1693C4.72064 20.1644 4.71781 20.1553 4.7222 20.1364L4.72221 20.1364L6.32959 13.2231L6.39787 12.9294L6.16999 12.732L0.804988 8.08371L0.804743 8.0835C0.790157 8.07088 0.787133 8.06193 0.785829 8.05676C0.783865 8.04898 0.783456 8.03693 0.787995 8.02296C0.792532 8.009 0.799967 7.99941 0.80626 7.99416C0.810492 7.99062 0.818487 7.98499 0.838191 7.98329L7.90965 7.3758L8.21006 7.34999L8.32742 7.07226L11.0896 0.53572L11.0898 0.535325C11.0975 0.517029 11.1053 0.511206 11.1099 0.508344C11.1167 0.504055 11.1279 0.5 11.1424 0.5C11.1568 0.5 11.1681 0.504055 11.1749 0.508344C11.1794 0.511206 11.1872 0.517029 11.195 0.535326Z" stroke="#BBBBBB"/>
</svg>
