<svg width="23" height="21" viewBox="0 0 23 21" fill="none" xmlns="http://www.w3.org/2000/svg">
<path d="M11.8738 0.535326L11.8739 0.535692L14.6361 7.07335L14.7535 7.3511L15.0539 7.37691L22.1253 7.9844C22.1253 7.9844 22.1254 7.98441 22.1255 7.98441C22.1446 7.98609 22.1524 7.99157 22.1567 7.99517C22.1631 8.00051 22.1707 8.01025 22.1753 8.02437C22.1799 8.03849 22.1794 8.05057 22.1775 8.05826C22.1762 8.0633 22.1733 8.0721 22.1588 8.08462L22.1586 8.08482L16.7947 12.732L16.5668 12.9294L16.6351 13.2231L18.2424 20.1362C18.2469 20.1554 18.244 20.1647 18.242 20.1698C18.2389 20.1774 18.2321 20.1874 18.2203 20.196C18.2085 20.2045 18.1971 20.2078 18.1892 20.2083C18.1841 20.2087 18.1747 20.2086 18.1581 20.1986L18.1573 20.198L12.08 16.5329L11.8218 16.3772L11.5635 16.5329L5.48673 20.1978C5.48669 20.1978 5.48666 20.1978 5.48663 20.1978C5.46971 20.208 5.45994 20.2081 5.45447 20.2077C5.44632 20.2072 5.43474 20.2038 5.42295 20.1953C5.41115 20.1867 5.40444 20.1768 5.40146 20.1693C5.39948 20.1644 5.39664 20.1553 5.40103 20.1364L5.40104 20.1364L7.00842 13.2231L7.0767 12.9294L6.84882 12.732L1.48382 8.08371L1.48358 8.0835C1.46899 8.07088 1.46597 8.06193 1.46466 8.05676C1.4627 8.04898 1.46229 8.03693 1.46683 8.02296C1.47136 8.009 1.4788 7.99941 1.48509 7.99416C1.48933 7.99062 1.49732 7.98499 1.51702 7.98329L8.58848 7.3758L8.88889 7.34999L9.00625 7.07226L11.7685 0.53572L11.7686 0.535325C11.7763 0.517029 11.7842 0.511206 11.7887 0.508344C11.7955 0.504055 11.8067 0.5 11.8212 0.5C11.8357 0.5 11.8469 0.504055 11.8537 0.508344C11.8582 0.511206 11.8661 0.517029 11.8738 0.535326Z" fill="#1089FF" stroke="#1089FF"/>
</svg>
