<svg width="621" height="94" viewBox="0 0 621 94" fill="none" xmlns="http://www.w3.org/2000/svg">
<path fill-rule="evenodd" clip-rule="evenodd" d="M0 46H620.586V48.7582H0V46Z" fill="#BBBBBB"/>
<path fill-rule="evenodd" clip-rule="evenodd" d="M0 46H311.672V48.7582H0V46Z" fill="#1089FF"/>
<path fill-rule="evenodd" clip-rule="evenodd" d="M47 94C72.9575 94 94 72.9575 94 47C94 21.0425 72.9575 0 47 0C21.0425 0 0 21.0425 0 47C0 72.9575 21.0425 94 47 94Z" fill="#1089FF"/>
<path fill-rule="evenodd" clip-rule="evenodd" d="M26.9958 25.6364H67.4809C69.8614 25.6364 71.798 28.2188 71.798 31.393V62.607C71.798 65.7812 69.8614 68.3636 67.4809 68.3636H26.9958C24.6154 68.3636 22.6787 65.7812 22.6787 62.607V31.393C22.6787 28.2188 24.6154 25.6364 26.9958 25.6364ZM67.4809 64.5258C68.2744 64.5258 68.9199 63.665 68.9199 62.607V39.8361H25.5568V62.607C25.5568 63.665 26.2023 64.5258 26.9958 64.5258H67.4809ZM25.5568 35.9984H68.9199V31.393C68.9199 30.3349 68.2744 29.4741 67.4809 29.4741H26.9958C26.2023 29.4741 25.5568 30.3349 25.5568 31.393V35.9984ZM44.168 58.1295H31.8882C31.0934 58.1295 30.4491 57.2704 30.4491 56.2107C30.4491 55.1509 31.0934 54.2918 31.8882 54.2918H44.168C44.9627 54.2918 45.607 55.1509 45.607 56.2107C45.607 57.2704 44.9627 58.1295 44.168 58.1295ZM31.8882 49.9422H44.168C44.9627 49.9422 45.607 49.0831 45.607 48.0233C45.607 46.9636 44.9627 46.1045 44.168 46.1045H31.8882C31.0934 46.1045 30.4491 46.9636 30.4491 48.0233C30.4491 49.0831 31.0934 49.9422 31.8882 49.9422ZM64.1224 58.1295H54.9125C54.1178 58.1295 53.4735 57.2704 53.4735 56.2106V48.0233C53.4735 46.9636 54.1178 46.1045 54.9125 46.1045H64.1224C64.9171 46.1045 65.5614 46.9636 65.5614 48.0233V56.2106C65.5614 57.2704 64.9171 58.1295 64.1224 58.1295ZM62.6833 49.9422H56.3515V54.2917H62.6833V49.9422Z" fill="white"/>
<path fill-rule="evenodd" clip-rule="evenodd" d="M574 94C599.956 94 621 72.9575 621 47C621 21.0425 599.956 0 574 0C548.044 0 527 21.0425 527 47C527 72.9575 548.044 94 574 94Z" fill="#BBBBBB"/>
<path d="M591.247 34.5171V23.8808H581.216V26.721L574.322 21.3636L548.953 41.0805L555.077 49.3067L557.398 47.503V64.0909H571.966V52.8726H576.679V64.0908H591.247V47.5026L593.568 49.3064L599.692 41.0803L591.247 34.5171ZM588.271 61.0497H579.655V49.8315H568.99V61.0497H560.374V45.1898L574.323 34.3494L588.271 45.1895V61.0497ZM593.001 45.0449L574.323 30.5286L555.644 45.0451L553.124 41.6598L574.322 25.1846L584.192 32.855V26.9218H588.27V36.0248L595.521 41.6596L593.001 45.0449Z" fill="white"/>
<path fill-rule="evenodd" clip-rule="evenodd" d="M311 94C336.956 94 358 72.9575 358 47C358 21.0425 336.956 0 311 0C285.044 0 264 21.0425 264 47C264 72.9575 285.044 94 311 94Z" fill="#1089FF"/>
<path d="M330.072 56.8778C328.54 56.8778 327.085 57.4776 325.988 58.5624C324.89 59.6599 324.278 61.0893 324.278 62.6207C324.278 64.1522 324.877 65.5815 325.988 66.679C327.098 67.7638 328.54 68.3636 330.072 68.3636C333.211 68.3636 335.763 65.7857 335.763 62.6207C335.763 59.4557 333.211 56.8778 330.072 56.8778ZM330.072 65.8112C328.31 65.8112 326.83 64.3563 326.83 62.6207C326.83 60.8851 328.31 59.4302 330.072 59.4302C331.807 59.4302 333.211 60.8596 333.211 62.6207C333.211 64.3819 331.807 65.8112 330.072 65.8112ZM331.552 37.7475C331.322 37.5306 331.016 37.4157 330.697 37.4157H324.15C323.448 37.4157 322.874 37.99 322.874 38.6919V49.1568C322.874 49.8587 323.448 50.433 324.15 50.433H334.538C335.24 50.433 335.814 49.8587 335.814 49.1568V42.1504C335.814 41.7931 335.661 41.4485 335.393 41.206L331.552 37.7475ZM333.262 47.8806H325.426V39.9554H330.199L333.262 42.7119V47.8806ZM298.907 56.8778C297.375 56.8778 295.92 57.4776 294.823 58.5624C293.725 59.6599 293.113 61.0893 293.113 62.6207C293.113 64.1522 293.713 65.5815 294.823 66.679C295.933 67.7638 297.375 68.3636 298.907 68.3636C302.046 68.3636 304.599 65.7857 304.599 62.6207C304.599 59.4557 302.046 56.8778 298.907 56.8778ZM298.907 65.8112C297.146 65.8112 295.665 64.3563 295.665 62.6207C295.665 60.8851 297.146 59.4302 298.907 59.4302C300.642 59.4302 302.046 60.8596 302.046 62.6207C302.046 64.3819 300.642 65.8112 298.907 65.8112ZM290.394 58.4475H287.829V55.0528C287.829 54.3509 287.255 53.7766 286.553 53.7766C285.851 53.7766 285.277 54.3509 285.277 55.0528V59.7237C285.277 60.4256 285.851 60.9999 286.553 60.9999H290.394C291.096 60.9999 291.671 60.4256 291.671 59.7237C291.671 59.0218 291.096 58.4475 290.394 58.4475ZM296.865 51.4922C296.865 50.7903 296.29 50.216 295.589 50.216H280.108C279.406 50.216 278.832 50.7903 278.832 51.4922C278.832 52.1941 279.406 52.7684 280.108 52.7684H295.589C296.29 52.7684 296.865 52.2069 296.865 51.4922ZM282.699 46.8851L298.179 46.9745C298.881 46.9745 299.455 46.4129 299.468 45.711C299.481 44.9963 298.907 44.4221 298.205 44.4221L282.724 44.3327C282.712 44.3327 282.712 44.3327 282.712 44.3327C282.01 44.3327 281.435 44.8943 281.435 45.5962C281.423 46.3108 281.997 46.8851 282.699 46.8851ZM285.302 41.0912H300.783C301.485 41.0912 302.059 40.5169 302.059 39.815C302.059 39.1131 301.485 38.5388 300.783 38.5388H285.302C284.6 38.5388 284.026 39.1131 284.026 39.815C284.026 40.5169 284.6 41.0912 285.302 41.0912ZM341.034 39.3683L331.897 31.8004C331.667 31.609 331.386 31.5069 331.08 31.5069H320.334V26.9126C320.334 26.2106 319.76 25.6364 319.058 25.6364H286.553C285.851 25.6364 285.277 26.2106 285.277 26.9126V36.2544C285.277 36.9563 285.851 37.5306 286.553 37.5306C287.255 37.5306 287.829 36.9563 287.829 36.2544V28.1888H317.795V58.4475H307.33C306.628 58.4475 306.053 59.0218 306.053 59.7237C306.053 60.4256 306.628 60.9999 307.33 60.9999H322.912C323.614 60.9999 324.188 60.4256 324.188 59.7237C324.188 59.0218 323.614 58.4475 322.912 58.4475H320.347V34.0593H330.633L338.954 40.9508L338.865 58.422H337.537C336.835 58.422 336.261 58.9963 336.261 59.6982C336.261 60.4001 336.835 60.9744 337.537 60.9744H340.128C340.83 60.9744 341.404 60.4129 341.404 59.711L341.506 40.3637C341.494 39.9809 341.328 39.6108 341.034 39.3683Z" fill="#FCFAFA"/>
</svg>
