<svg width="23" height="30" viewBox="0 0 23 30" fill="none" xmlns="http://www.w3.org/2000/svg">
<path fill-rule="evenodd" clip-rule="evenodd" d="M15.7554 3.55956H20.1319C21.5798 3.55956 22.7578 4.73753 22.7578 6.18546V7.93606C22.7578 8.41946 22.3659 8.81136 21.8825 8.81136H20.9375L19.3874 27.4689C19.2748 28.8193 18.1254 29.8769 16.7705 29.8769H5.98729C4.63244 29.8769 3.483 28.8193 3.37043 27.4691L1.82028 8.81136H0.8753C0.391901 8.81136 0 8.41946 0 7.93606V6.18546C0 4.73753 1.17798 3.55956 2.6259 3.55956H7.0024V2.6259C7.0024 1.17798 8.18038 0 9.62831 0H13.1295C14.5774 0 15.7554 1.17798 15.7554 2.6259V3.55956ZM9.62831 1.7506C9.14566 1.7506 8.753 2.14326 8.753 2.6259V3.55956H14.0048V2.6259C14.0048 2.14326 13.6121 1.7506 13.1295 1.7506H9.62831ZM16.7705 28.1263C17.2221 28.1263 17.6053 27.7738 17.6428 27.3237L19.1809 8.81136H3.57694L5.11502 27.3239C5.15249 27.7738 5.53569 28.1263 5.98729 28.1263H16.7705ZM1.7506 7.06076H21.0072V6.18546C21.0072 5.70282 20.6146 5.31016 20.1319 5.31016H2.6259C2.14326 5.31016 1.7506 5.70282 1.7506 6.18546V7.06076ZM10.5037 11.4373C10.5037 10.9539 10.8956 10.562 11.379 10.562C11.8624 10.562 12.2543 10.9539 12.2543 11.4373V25.5004C12.2543 25.9838 11.8624 26.3757 11.379 26.3757C10.8956 26.3757 10.5037 25.9838 10.5037 25.5004V11.4373ZM14.8798 10.562C14.3964 10.562 14.0045 10.9539 14.0045 11.4373V25.5004C14.0045 25.9838 14.3964 26.3757 14.8798 26.3757C15.3632 26.3757 15.7551 25.9838 15.7551 25.5004V11.4373C15.7551 10.9539 15.3632 10.562 14.8798 10.562ZM7.00226 11.4373C7.00226 10.9539 7.39416 10.562 7.87756 10.562C8.36096 10.562 8.75286 10.9539 8.75286 11.4373V25.5004C8.75286 25.9838 8.36096 26.3757 7.87756 26.3757C7.39416 26.3757 7.00226 25.9838 7.00226 25.5004V11.4373Z" fill="white"/>
</svg>
