<svg width="39" height="37" viewBox="0 0 39 37" fill="none" xmlns="http://www.w3.org/2000/svg">
<path d="M19.5 0C8.73209 0 0 8.28429 0 18.5C0 28.7157 8.73209 37 19.5 37C30.2679 37 39 28.7157 39 18.5C39 8.28429 30.2679 0 19.5 0ZM28.4035 14.4243C28.4121 14.6064 28.4163 14.7893 28.4163 14.9731C28.4163 20.5841 23.9144 27.0544 15.6816 27.0547H15.6819H15.6816C13.1539 27.0547 10.8018 26.3518 8.82106 25.1473C9.17127 25.1865 9.52773 25.206 9.88866 25.206C11.9858 25.206 13.9156 24.5274 15.4477 23.3884C13.4884 23.3539 11.8364 22.1263 11.2663 20.439C11.5391 20.4887 11.8197 20.5158 12.1075 20.5158C12.516 20.5158 12.9117 20.4636 13.2878 20.3662C11.2398 19.9772 9.69704 18.2601 9.69704 16.2039C9.69704 16.1847 9.69704 16.1675 9.69763 16.1497C10.3008 16.4678 10.9905 16.6592 11.7248 16.6807C10.523 15.9199 9.73304 14.6194 9.73304 13.1461C9.73304 12.3681 9.95471 11.6393 10.3391 11.0118C12.5463 13.5811 15.8449 15.2709 19.5649 15.4485C19.4881 15.1374 19.4485 14.8133 19.4485 14.4802C19.4485 12.1361 21.4531 10.2343 23.9248 10.2343C25.2123 10.2343 26.3751 10.7506 27.1919 11.576C28.2116 11.3852 29.1691 11.0318 30.034 10.5454C29.6993 11.5365 28.9899 12.3681 28.0658 12.8941C28.9712 12.7913 29.8341 12.5635 30.636 12.2253C30.037 13.077 29.2774 13.825 28.4035 14.4243Z" fill="white"/>
</svg>
