<svg width="37" height="37" viewBox="0 0 37 37" fill="none" xmlns="http://www.w3.org/2000/svg">
<path d="M16.1957 21.966L22.2135 18.5001L16.1957 15.0342V21.966Z" fill="white"/>
<path d="M18.5 0C8.28429 0 0 8.28429 0 18.5C0 28.7157 8.28429 37 18.5 37C28.7157 37 37 28.7157 37 18.5C37 8.28429 28.7157 0 18.5 0ZM30.0597 18.5189C30.0597 18.5189 30.0597 22.2708 29.5837 24.08C29.317 25.0702 28.5362 25.8511 27.5459 26.1175C25.7367 26.5938 18.5 26.5938 18.5 26.5938C18.5 26.5938 11.2822 26.5938 9.45409 26.0986C8.46383 25.8321 7.68302 25.051 7.41626 24.0608C6.94004 22.2708 6.94004 18.5 6.94004 18.5C6.94004 18.5 6.94004 14.7484 7.41626 12.9392C7.68274 11.949 8.48274 11.1489 9.45409 10.8825C11.2633 10.4062 18.5 10.4062 18.5 10.4062C18.5 10.4062 25.7367 10.4062 27.5459 10.9014C28.5362 11.1679 29.317 11.949 29.5837 12.9392C30.0789 14.7484 30.0597 18.5189 30.0597 18.5189Z" fill="white"/>
</svg>
